<?xml version="1.0" standalone="no"?>
<!DOCTYPE svg PUBLIC "-//W3C//DTD SVG 20010904//EN"
 "http://www.w3.org/TR/2001/REC-SVG-20010904/DTD/svg10.dtd">
<svg version="1.0" xmlns="http://www.w3.org/2000/svg"
 width="512.000000pt" height="512.000000pt" viewBox="0 0 512.000000 512.000000"
 preserveAspectRatio="xMidYMid meet">
<metadata>
Created by potrace 1.11, written by Peter Selinger 2001-2013
</metadata>
<g transform="translate(0.000000,512.000000) scale(0.100000,-0.100000)"
fill="#000000" stroke="none">
<path d="M2445 4660 c-27 -4 -73 -10 -102 -14 -74 -9 -312 -71 -386 -101 -35
-14 -67 -25 -71 -25 -4 0 -60 -26 -124 -58 -140 -69 -282 -158 -383 -237 -71
-56 -273 -253 -314 -305 -11 -14 -36 -46 -56 -70 -83 -103 -200 -302 -267
-455 -27 -63 -100 -284 -107 -327 -3 -18 -10 -49 -15 -68 -20 -81 -41 -258
-43 -375 -13 -621 244 -1210 708 -1624 634 -565 1573 -685 2337 -300 254 128
511 336 683 554 22 28 43 52 46 55 29 26 197 307 188 314 -15 11 -702 255
-708 252 -4 -3 -21 -24 -36 -48 -72 -107 -182 -224 -285 -303 -36 -28 -66 -53
-68 -57 -2 -5 -7 -8 -12 -8 -4 0 -38 -18 -75 -40 -146 -90 -338 -156 -512
-177 -71 -9 -290 -9 -358 -1 -72 10 -169 33 -255 63 -108 37 -260 114 -260
132 0 9 536 551 1190 1205 655 655 1190 1192 1190 1193 0 21 -231 265 -329
348 -247 209 -607 384 -911 443 -34 6 -117 22 -160 30 -52 9 -447 12 -505 4z
m375 -744 c84 -11 110 -16 175 -32 88 -21 235 -75 235 -85 0 -5 -401 -410
-890 -899 l-891 -891 -23 53 c-29 66 -59 162 -66 210 -1 4 -5 22 -10 40 -22
74 -31 304 -17 418 62 515 400 940 887 1116 86 31 219 62 300 70 36 3 66 7 67
8 5 4 184 -2 233 -8z"/>
</g>
</svg>
